/* XPM */
static char * below_chain_xpm[] = {
"8 8 4 1",
" 	c None",
".	c #CECFCE",
"+	c #8C8E8C",
"@	c #FFFFFF",
"........",
"....@+..",
"....@+..",
"....@+..",
"....@+..",
"@@@@@+..",
"+++++...",
"........"};
