/* XPM */
static char * chain_open_xpm[] = {
"8 24 10 1",
" 	c None",
".	c #CECFCE",
"+	c #000000",
"@	c #6B6B6B",
"#	c #D6D3D6",
"$	c #B5B6B5",
"%	c #5A595A",
"&	c #9C9B9C",
"*	c #EFEBEF",
"=	c #8C8E94",
"..+++++.",
".+@##$%+",
".+&+++*+",
".+#+.+#+",
".+#+.+#+",
".+$+.+#+",
".+&+++#+",
".+=+@+=+",
"..++$++.",
"...+#+..",
"........",
"........",
"........",
"........",
"...+#+..",
"..++#++.",
".+@+$+=+",
".+$+++$+",
".+$+.+*+",
".+$+.+*+",
".+$+.+*+",
".+#+++*+",
".+@*#*$+",
"..+++++."};
