/* XPM */
static char * chain_xpm[] = {
"8 24 37 1",
" 	c None",
".	c #CECFCE",
"+	c #000000",
"@	c #8C8E8C",
"#	c #FFFFFF",
"$	c #DEDFDE",
"%	c #9C9A9C",
"&	c #949694",
"*	c #424542",
"=	c #6B6D6B",
"-	c #D6D3D6",
";	c #B5B6B5",
">	c #5A595A",
",	c #EFEBEF",
"'	c #8C8E94",
")	c #424142",
"!	c #4A494A",
"~	c #4A4D4A",
"{	c #393C39",
"]	c #525552",
"^	c #949294",
"/	c #393839",
"(	c #313431",
"_	c #313031",
":	c #6B696B",
"<	c #9C9E9C",
"[	c #C6C7C6",
"}	c #636563",
"|	c #ADAAAD",
"1	c #E7E3E7",
"2	c #BDBEBD",
"3	c #8C8A8C",
"4	c #BDBABD",
"5	c #E7E7E7",
"6	c #292C29",
"7	c #DEDBDE",
"8	c #848684",
"........",
"........",
"..+++++.",
".+=--;>+",
".+%+++,+",
".+-+.+-+",
".+-+.+-+",
".+;+.+-+",
".+%+++-+",
".+'+=+'+",
"..++;++.",
"...+-+..",
"...+-+..",
"..++-++.",
".+=+;+'+",
".+;+++;+",
".+;+.+,+",
".+;+.+,+",
".+;+.+,+",
".+-+++,+",
".+=,-,;+",
"..+++++.",
"........",
"........"};
