/* XPM */
static char * navigate_xpm[] = {
"24 24 4 1",
" 	c None",
".	c #000000",
"+	c #DDD068",
"@	c #9B914D",
"                        ",
"           .            ",
"          .+.           ",
"     @.  .+++.          ",
"    .+@..+.+.+.         ",
"     .+@...+..          ",
"      .+@..+.    ...    ",
"       .+@.+.  ..@++.   ",
"        .+.+. .@++..    ",
"         ..+..++..      ",
"         ..+@+..        ",
"       ..@++...         ",
"    .@.@++.+.+@.        ",
"   .+@++...+..+@...     ",
"  .++++.  .+. .+@+.     ",
"   .@..   .+.  .@+.     ",
"          .+. .+++.     ",
"          .+.  ....     ",
"          .+.           ",
"          .+.           ",
"          .+.           ",
"           .            ",
"                        ",
"                        "};
