/* XPM */
static char * render_surface_xpm[] = {
"24 24 109 2",
"  	c None",
". 	c #777777",
"+ 	c #0B0D11",
"@ 	c #0C0E12",
"# 	c #101317",
"$ 	c #1A1B1F",
"% 	c #24262D",
"& 	c #3C4355",
"* 	c #424A5D",
"= 	c #3A4153",
"- 	c #191D24",
"; 	c #0F1216",
"> 	c #0D1014",
", 	c #191D23",
"' 	c #434959",
") 	c #676E7C",
"! 	c #717885",
"~ 	c #5E677A",
"{ 	c #525C72",
"] 	c #505A70",
"^ 	c #4D576D",
"/ 	c #454D61",
"( 	c #3A4253",
"_ 	c #0B0E10",
": 	c #2D3340",
"< 	c #3A4151",
"[ 	c #4D566B",
"} 	c #60697D",
"| 	c #7E8697",
"1 	c #606A7E",
"2 	c #505A71",
"3 	c #4B5569",
"4 	c #3A4051",
"5 	c #020204",
"6 	c #0D0F14",
"7 	c #202634",
"8 	c #3C4556",
"9 	c #444D5F",
"0 	c #555D6E",
"a 	c #7C8393",
"b 	c #7C8495",
"c 	c #596277",
"d 	c #4E576D",
"e 	c #454E61",
"f 	c #434C5E",
"g 	c #0D111C",
"h 	c #2D3B61",
"i 	c #212A3F",
"j 	c #1D2333",
"k 	c #252B3C",
"l 	c #4C5464",
"m 	c #686E7D",
"n 	c #4B5465",
"o 	c #23293A",
"p 	c #1A2139",
"q 	c #374A79",
"r 	c #485F9C",
"s 	c #43588F",
"t 	c #262F48",
"u 	c #1E2435",
"v 	c #242E45",
"w 	c #1D2640",
"x 	c #455A94",
"y 	c #5470B6",
"z 	c #4D67A7",
"A 	c #4B64A2",
"B 	c #1D2840",
"C 	c #455B95",
"D 	c #5773BC",
"E 	c #5A77C2",
"F 	c #455C96",
"G 	c #5570B7",
"H 	c #5068AB",
"I 	c #4B62A3",
"J 	c #1E2842",
"K 	c #1D2841",
"L 	c #3A4E7E",
"M 	c #273354",
"N 	c #5C79C3",
"O 	c #607ABE",
"P 	c #475C96",
"Q 	c #5A77C3",
"R 	c #5B78C3",
"S 	c #6480C5",
"T 	c #8298CD",
"U 	c #627CBF",
"V 	c #849ACD",
"W 	c #6C86C7",
"X 	c #5975BD",
"Y 	c #5D79C3",
"Z 	c #101625",
"` 	c #425890",
" .	c #40558A",
"..	c #4D66A7",
"+.	c #5A78C3",
"@.	c #6A84C6",
"#.	c #7C93CA",
"$.	c #5F7ABE",
"%.	c #101624",
"&.	c #1D263D",
"*.	c #425790",
"=.	c #4A62A1",
"-.	c #4F68A8",
";.	c #5269A3",
">.	c #445990",
",.	c #121826",
"'.	c #41578F",
").	c #0D121E",
"!.	c #0E131F",
"                                                ",
"                  . + @ @ + .                   ",
"            . # $ % & * * = - ; > .             ",
"        . > , ' ) ! ~ { ] ^ / * ( , > .         ",
"        _ : < [ } | | 1 { 2 ] ] 3 4 : _         ",
"        5 6 7 8 9 0 a b c d e f 8 7 6 5         ",
"        . g h i j k l m n 8 o j i h g .         ",
"          . p q r s t o u v s r q p .           ",
"            . w x y z A A z y x w .             ",
"              . B C D E E D F B .               ",
"                . B C G H I J .                 ",
"                  . K L M .                     ",
"                    . M L K .                   ",
"                . J I H G C B .                 ",
"              . B F D E N O P B .               ",
"            . B C D Q R S T U C B .             ",
"          . B C D Q R R S V W X C B .           ",
"        . B C D Q R R R Y W V S D C B .         ",
"        Z ` D Q R R R R R S V W Y D ` Z         ",
"        Z  ...D E E +.R R Y @.#.$... .Z         ",
"        . %.&.*.=...D E E D -.;.>.&.%..         ",
"            . %.,.&.'.=.=.'.&.,.%..             ",
"                  . ).!.!.)..                   ",
"                                                "};
