/* XPM */
static char * render_curve_xpm[] = {
"24 24 32 1",
" 	c None",
".	c #1C1C1C",
"+	c #3B3B3B",
"@	c #232323",
"#	c #2E2E2E",
"$	c #0C0C0C",
"%	c #1B1B1B",
"&	c #191919",
"*	c #090909",
"=	c #707070",
"-	c #050505",
";	c #222222",
">	c #1F1F1F",
",	c #070707",
"'	c #292929",
")	c #0E0E0E",
"!	c #0A0A0A",
"~	c #3F3F3F",
"{	c #393939",
"]	c #0F0F0F",
"^	c #3D3D3D",
"/	c #3E3E3E",
"(	c #262626",
"_	c #080808",
":	c #040404",
"<	c #1E1E1E",
"[	c #242424",
"}	c #353535",
"|	c #696969",
"1	c #2D2D2D",
"2	c #1D1D1D",
"3	c #464646",
"                        ",
"                        ",
"                        ",
"                     .  ",
"                    +   ",
"                   @    ",
"                   @    ",
"                  #     ",
"                 $      ",
"      %&+*       =      ",
"     -    ;>    ,       ",
"    '       *  )        ",
"    !        ~{         ",
"    ]        ^/         ",
"    (       _  )        ",
"     :    <;    _       ",
"      <[}*       |      ",
"                 !      ",
"                  1     ",
"                   '    ",
"                   2    ",
"                    3   ",
"                        ",
"                        "};
